# xmcd
# 
# Track frame offsets:
#     150
#     18245
#     35597
#     53047
#     70360
#     85962
#     104685
#     123060
#     145592
#     168859
#     186517
#     203612
#     223775
#     237934
#     255109
#     275687
#     297362
# 
# Disc length: 4288
# 
# Revision: 2
# Processed by: cddbd v1.5.2PL0 Copyright (c) Steve Scherf et al.
# Submitted via: fre:ac v1.0.31
# 
DISCID=f610be11
DTITLE=林志美 - 林志美 Samantha Lam SACD Collection
DYEAR=0
DGENRE=Pop
TTITLE0=感情的段落
TTITLE1=雨夜鋼琴
TTITLE2=甚麼是緣份
TTITLE3=你的眼神
TTITLE4=月影
TTITLE5=攝石人
TTITLE6=勁之夜
TTITLE7=因你別離
TTITLE8=偶遇
TTITLE9=因我愛你
TTITLE10=初戀
TTITLE11=情人路
TTITLE12=風箏
TTITLE13=愛的微波
TTITLE14=永遠冬天
TTITLE15=永遠動聽
TTITLE16=灑脫
EXTD=
EXTT0=
EXTT1=
EXTT2=
EXTT3=
EXTT4=
EXTT5=
EXTT6=
EXTT7=
EXTT8=
EXTT9=
EXTT10=
EXTT11=
EXTT12=
EXTT13=
EXTT14=
EXTT15=
EXTT16=
PLAYORDER=
